<svg width="375" height="202" viewBox="0 0 375 202" fill="none" xmlns="http://www.w3.org/2000/svg">
<path d="M86.6371 31V10.42H93.9871C95.3471 10.42 96.4771 10.67 97.3771 11.17C98.2971 11.67 98.9871 12.37 99.4471 13.27C99.9071 14.17 100.137 15.22 100.137 16.42C100.137 17.62 99.8871 18.68 99.3871 19.6C98.8871 20.52 98.1771 21.24 97.2571 21.76C96.3571 22.26 95.2671 22.51 93.9871 22.51H89.2771V31H86.6371ZM89.2771 20.11H93.8971C94.9571 20.11 95.7971 19.77 96.4171 19.09C97.0571 18.41 97.3771 17.52 97.3771 16.42C97.3771 15.3 97.0771 14.42 96.4771 13.78C95.8771 13.14 95.0171 12.82 93.8971 12.82H89.2771V20.11ZM115.043 31V10.42H117.683V31H115.043ZM141.13 31.36C138.47 31.36 136.45 30.48 135.07 28.72C133.71 26.94 133.03 24.27 133.03 20.71C133.03 17.13 133.71 14.46 135.07 12.7C136.45 10.94 138.47 10.06 141.13 10.06C142.53 10.06 143.77 10.35 144.85 10.93C145.93 11.49 146.77 12.35 147.37 13.51C147.99 14.65 148.3 16.1 148.3 17.86H145.6C145.6 16.06 145.19 14.72 144.37 13.84C143.57 12.94 142.49 12.49 141.13 12.49C139.33 12.49 137.99 13.11 137.11 14.35C136.23 15.59 135.79 17.46 135.79 19.96V21.46C135.79 23.96 136.23 25.83 137.11 27.07C137.99 28.31 139.33 28.93 141.13 28.93C142.51 28.93 143.61 28.49 144.43 27.61C145.27 26.73 145.69 25.4 145.69 23.62H148.3C148.3 25.38 147.99 26.84 147.37 28C146.77 29.14 145.93 29.99 144.85 30.55C143.77 31.09 142.53 31.36 141.13 31.36ZM167.703 31V12.82H162.093V10.42H175.953V12.82H170.343V31H167.703ZM197.433 31.36C195.313 31.36 193.653 30.76 192.453 29.56C191.253 28.36 190.653 26.61 190.653 24.31V10.42H193.293V24.46C193.293 25.92 193.663 27.03 194.403 27.79C195.143 28.55 196.153 28.93 197.433 28.93C198.733 28.93 199.743 28.55 200.463 27.79C201.203 27.03 201.573 25.92 201.573 24.46V10.42H204.213V24.31C204.213 26.61 203.613 28.36 202.413 29.56C201.213 30.76 199.553 31.36 197.433 31.36ZM220.407 31V10.42H228.687C230.707 10.42 232.237 10.95 233.277 12.01C234.317 13.05 234.837 14.42 234.837 16.12C234.837 17.4 234.517 18.51 233.877 19.45C233.237 20.37 232.337 21.03 231.177 21.43L235.317 31H232.377L228.567 21.91H223.047V31H220.407ZM223.047 19.51H228.597C229.657 19.51 230.497 19.2 231.117 18.58C231.757 17.96 232.077 17.14 232.077 16.12C232.077 15.1 231.777 14.3 231.177 13.72C230.577 13.12 229.717 12.82 228.597 12.82H223.047V19.51ZM254.55 31V22.48L247.89 10.42H250.8L256.02 19.96H256.14L261.27 10.42H263.82L257.19 22.48V31H254.55ZM284.217 31.36C282.977 31.36 281.827 31.16 280.767 30.76C279.707 30.36 278.857 29.71 278.217 28.81C277.597 27.91 277.287 26.7 277.287 25.18C277.287 25.08 277.287 24.97 277.287 24.85C277.307 24.71 277.317 24.62 277.317 24.58H280.047C280.047 24.6 280.037 24.69 280.017 24.85C280.017 24.99 280.017 25.11 280.017 25.21C280.017 26.47 280.407 27.41 281.187 28.03C281.967 28.63 282.937 28.93 284.097 28.93C285.477 28.93 286.537 28.64 287.277 28.06C288.037 27.46 288.417 26.61 288.417 25.51C288.417 24.77 288.217 24.17 287.817 23.71C287.437 23.25 286.927 22.87 286.287 22.57C285.667 22.27 284.977 22 284.217 21.76C283.457 21.52 282.687 21.26 281.907 20.98C281.147 20.7 280.447 20.34 279.807 19.9C279.187 19.46 278.677 18.9 278.277 18.22C277.897 17.52 277.707 16.64 277.707 15.58C277.707 14.32 277.997 13.28 278.577 12.46C279.177 11.64 279.967 11.04 280.947 10.66C281.947 10.26 283.047 10.06 284.247 10.06C285.447 10.06 286.527 10.26 287.487 10.66C288.467 11.04 289.247 11.66 289.827 12.52C290.407 13.36 290.697 14.47 290.697 15.85V16.21H287.967V15.76C287.967 14.7 287.617 13.89 286.917 13.33C286.217 12.77 285.347 12.49 284.307 12.49C283.227 12.49 282.317 12.72 281.577 13.18C280.857 13.64 280.497 14.37 280.497 15.37C280.497 16.07 280.687 16.64 281.067 17.08C281.467 17.52 281.977 17.89 282.597 18.19C283.237 18.47 283.937 18.73 284.697 18.97C285.457 19.21 286.217 19.47 286.977 19.75C287.737 20.03 288.427 20.39 289.047 20.83C289.687 21.27 290.197 21.83 290.577 22.51C290.977 23.17 291.177 24.02 291.177 25.06C291.177 26.6 290.867 27.83 290.247 28.75C289.647 29.67 288.827 30.34 287.787 30.76C286.747 31.16 285.557 31.36 284.217 31.36Z" fill="#E1FFD7"/>
</svg>
