<svg width="500" height="200" viewBox="0 0 500 200" fill="none" xmlns="http://www.w3.org/2000/svg">
<g clip-path="url(#clip0_10_189)">
<path d="M147.637 115V94.42H154.987C156.347 94.42 157.477 94.67 158.377 95.17C159.297 95.67 159.987 96.37 160.447 97.27C160.907 98.17 161.137 99.22 161.137 100.42C161.137 101.62 160.887 102.68 160.387 103.6C159.887 104.52 159.177 105.24 158.257 105.76C157.357 106.26 156.267 106.51 154.987 106.51H150.277V115H147.637ZM150.277 104.11H154.897C155.957 104.11 156.797 103.77 157.417 103.09C158.057 102.41 158.377 101.52 158.377 100.42C158.377 99.3 158.077 98.42 157.477 97.78C156.877 97.14 156.017 96.82 154.897 96.82H150.277V104.11ZM176.043 115V94.42H178.683V115H176.043ZM202.13 115.36C199.47 115.36 197.45 114.48 196.07 112.72C194.71 110.94 194.03 108.27 194.03 104.71C194.03 101.13 194.71 98.46 196.07 96.7C197.45 94.94 199.47 94.06 202.13 94.06C203.53 94.06 204.77 94.35 205.85 94.93C206.93 95.49 207.77 96.35 208.37 97.51C208.99 98.65 209.3 100.1 209.3 101.86H206.6C206.6 100.06 206.19 98.72 205.37 97.84C204.57 96.94 203.49 96.49 202.13 96.49C200.33 96.49 198.99 97.11 198.11 98.35C197.23 99.59 196.79 101.46 196.79 103.96V105.46C196.79 107.96 197.23 109.83 198.11 111.07C198.99 112.31 200.33 112.93 202.13 112.93C203.51 112.93 204.61 112.49 205.43 111.61C206.27 110.73 206.69 109.4 206.69 107.62H209.3C209.3 109.38 208.99 110.84 208.37 112C207.77 113.14 206.93 113.99 205.85 114.55C204.77 115.09 203.53 115.36 202.13 115.36ZM228.703 115V96.82H223.093V94.42H236.953V96.82H231.343V115H228.703ZM258.433 115.36C256.313 115.36 254.653 114.76 253.453 113.56C252.253 112.36 251.653 110.61 251.653 108.31V94.42H254.293V108.46C254.293 109.92 254.663 111.03 255.403 111.79C256.143 112.55 257.153 112.93 258.433 112.93C259.733 112.93 260.743 112.55 261.463 111.79C262.203 111.03 262.573 109.92 262.573 108.46V94.42H265.213V108.31C265.213 110.61 264.613 112.36 263.413 113.56C262.213 114.76 260.553 115.36 258.433 115.36ZM281.407 115V94.42H289.687C291.707 94.42 293.237 94.95 294.277 96.01C295.317 97.05 295.837 98.42 295.837 100.12C295.837 101.4 295.517 102.51 294.877 103.45C294.237 104.37 293.337 105.03 292.177 105.43L296.317 115H293.377L289.567 105.91H284.047V115H281.407ZM284.047 103.51H289.597C290.657 103.51 291.497 103.2 292.117 102.58C292.757 101.96 293.077 101.14 293.077 100.12C293.077 99.1 292.777 98.3 292.177 97.72C291.577 97.12 290.717 96.82 289.597 96.82H284.047V103.51ZM315.55 115V106.48L308.89 94.42H311.8L317.02 103.96H317.14L322.27 94.42H324.82L318.19 106.48V115H315.55ZM345.217 115.36C343.977 115.36 342.827 115.16 341.767 114.76C340.707 114.36 339.857 113.71 339.217 112.81C338.597 111.91 338.287 110.7 338.287 109.18C338.287 109.08 338.287 108.97 338.287 108.85C338.307 108.71 338.317 108.62 338.317 108.58H341.047C341.047 108.6 341.037 108.69 341.017 108.85C341.017 108.99 341.017 109.11 341.017 109.21C341.017 110.47 341.407 111.41 342.187 112.03C342.967 112.63 343.937 112.93 345.097 112.93C346.477 112.93 347.537 112.64 348.277 112.06C349.037 111.46 349.417 110.61 349.417 109.51C349.417 108.77 349.217 108.17 348.817 107.71C348.437 107.25 347.927 106.87 347.287 106.57C346.667 106.27 345.977 106 345.217 105.76C344.457 105.52 343.687 105.26 342.907 104.98C342.147 104.7 341.447 104.34 340.807 103.9C340.187 103.46 339.677 102.9 339.277 102.22C338.897 101.52 338.707 100.64 338.707 99.58C338.707 98.32 338.997 97.28 339.577 96.46C340.177 95.64 340.967 95.04 341.947 94.66C342.947 94.26 344.047 94.06 345.247 94.06C346.447 94.06 347.527 94.26 348.487 94.66C349.467 95.04 350.247 95.66 350.827 96.52C351.407 97.36 351.697 98.47 351.697 99.85V100.21H348.967V99.76C348.967 98.7 348.617 97.89 347.917 97.33C347.217 96.77 346.347 96.49 345.307 96.49C344.227 96.49 343.317 96.72 342.577 97.18C341.857 97.64 341.497 98.37 341.497 99.37C341.497 100.07 341.687 100.64 342.067 101.08C342.467 101.52 342.977 101.89 343.597 102.19C344.237 102.47 344.937 102.73 345.697 102.97C346.457 103.21 347.217 103.47 347.977 103.75C348.737 104.03 349.427 104.39 350.047 104.83C350.687 105.27 351.197 105.83 351.577 106.51C351.977 107.17 352.177 108.02 352.177 109.06C352.177 110.6 351.867 111.83 351.247 112.75C350.647 113.67 349.827 114.34 348.787 114.76C347.747 115.16 346.557 115.36 345.217 115.36Z" fill="#E1FFD7"/>
</g>
<defs>
<clipPath id="clip0_10_189">
<rect width="500" height="200" fill="white"/>
</clipPath>
</defs>
</svg>
